<svg id="Layer_1" data-name="Layer 1" xmlns="http://www.w3.org/2000/svg" viewBox="0 0 902.93 815.21"><defs><style>.cls-1{fill:#29abe2;}.cls-2{fill:#2196cf;}.cls-3{fill:#1980bb;}.cls-4{fill:#004081;}.cls-5{fill:#085594;}.cls-6{fill:#106ba8;}.cls-7{fill:#fff;}</style></defs><polygon class="cls-1" points="306.82 161.21 168.95 400 11.59 400 228.14 24.93 306.82 161.21"/><polygon class="cls-2" points="306.88 653.89 228.2 790.17 11.59 415 168.95 415 306.88 653.89"/><polygon class="cls-3" points="674.02 797.21 241.46 797.21 320.14 660.92 595.34 660.92 674.02 797.21"/><polygon class="cls-4" points="674.14 17.79 595.46 154.06 320.02 154.06 241.34 17.79 674.14 17.79"/><polygon class="cls-5" points="902.93 400 745.57 400 608.18 162.03 686.86 25.75 902.93 400"/><polygon class="cls-6" points="902.93 415 686.8 789.35 608.12 653.07 745.57 415 902.93 415"/><path class="cls-7" d="M338.11,76.88a13.31,13.31,0,0,1-5.52,1c-5.89,0-10.32-3.72-10.32-10.58,0-6.54,4.43-11,10.91-11a11.23,11.23,0,0,1,5,.93l-.65,2.2a9.76,9.76,0,0,0-4.22-.87c-4.9,0-8.15,3.13-8.15,8.62,0,5.12,2.94,8.4,8,8.4a10.73,10.73,0,0,0,4.4-.87Z"/><path class="cls-7" d="M354.48,69.94c0,5.55-3.85,8-7.48,8-4.06,0-7.19-3-7.19-7.72,0-5,3.29-8,7.44-8C351.56,62.22,354.48,65.35,354.48,69.94Zm-11.91.15c0,3.29,1.89,5.77,4.56,5.77s4.56-2.45,4.56-5.83c0-2.54-1.28-5.76-4.5-5.76S342.57,67.24,342.57,70.09Z"/><path class="cls-7" d="M358.78,62.56l2.14,3.22c.56.84,1,1.62,1.52,2.45h.1c.49-.9,1-1.67,1.48-2.48l2.11-3.19h2.95L364,69.82l5.27,7.75h-3.1l-2.2-3.38c-.59-.87-1.08-1.71-1.61-2.61h-.06c-.5.9-1,1.71-1.58,2.61l-2.18,3.38h-3l5.33-7.66-5.08-7.35Z"/><path class="cls-7" d="M371.87,67.46c0-1.92-.07-3.47-.13-4.9h2.45l.12,2.57h.07a5.88,5.88,0,0,1,5.33-2.91c3.63,0,6.36,3.07,6.36,7.63,0,5.39-3.29,8.06-6.83,8.06a5.27,5.27,0,0,1-4.62-2.36h-.06v8.16h-2.69Zm2.69,4a5.64,5.64,0,0,0,.13,1.12,4.2,4.2,0,0,0,4.09,3.19c2.88,0,4.56-2.36,4.56-5.8,0-3-1.58-5.58-4.47-5.58a4.35,4.35,0,0,0-4.12,3.38,4.52,4.52,0,0,0-.19,1.12Z"/><path class="cls-7" d="M397.81,77.57l-.21-1.89h-.1a5.6,5.6,0,0,1-4.59,2.23,4.27,4.27,0,0,1-4.58-4.31c0-3.63,3.22-5.61,9-5.58v-.31c0-1.24-.34-3.48-3.41-3.48A7.51,7.51,0,0,0,390,65.35l-.62-1.8a9.37,9.37,0,0,1,4.93-1.33c4.59,0,5.71,3.13,5.71,6.14V74a21.94,21.94,0,0,0,.24,3.6Zm-.4-7.66c-3-.06-6.36.46-6.36,3.38a2.41,2.41,0,0,0,2.58,2.6,3.75,3.75,0,0,0,3.63-2.51,3,3,0,0,0,.15-.87Z"/><path class="cls-7" d="M407.08,62.56v6h7.13v-6h2.7v15h-2.7V70.78h-7.13v6.79h-2.7v-15Z"/><path class="cls-7" d="M424,62.56v6h7.13v-6h2.7v15h-2.7V70.78H424v6.79h-2.7v-15Z"/><path class="cls-7" d="M451.88,69.94c0,5.55-3.85,8-7.47,8-4.07,0-7.2-3-7.2-7.72,0-5,3.29-8,7.44-8C449,62.22,451.88,65.35,451.88,69.94ZM440,70.09c0,3.29,1.89,5.77,4.56,5.77s4.56-2.45,4.56-5.83c0-2.54-1.27-5.76-4.5-5.76S440,67.24,440,70.09Z"/><path class="cls-7" d="M466,77a10,10,0,0,1-4.31.87c-4.52,0-7.47-3.07-7.47-7.66a7.62,7.62,0,0,1,8.06-8,9.05,9.05,0,0,1,3.79.78l-.62,2.1a6.41,6.41,0,0,0-3.17-.71c-3.44,0-5.3,2.54-5.3,5.67,0,3.48,2.23,5.62,5.21,5.62a7.78,7.78,0,0,0,3.35-.75Z"/><path class="cls-7" d="M479.84,62.56v2.17h-4.68V77.57h-2.7V64.73h-4.68V62.56Z"/><path class="cls-7" d="M484.86,62.56v5.08a15.65,15.65,0,0,1,2.48-.15c3.38,0,7,1.05,7,5.05A4.25,4.25,0,0,1,492.7,76c-1.64,1.39-4.31,1.73-6.51,1.73a35.65,35.65,0,0,1-4-.22V62.56Zm0,13.12a16.39,16.39,0,0,0,2,.12c2,0,4.68-.68,4.68-3.19s-2.73-3.17-4.75-3.17a13.15,13.15,0,0,0-1.95.16Z"/><path class="cls-7" d="M504.17,62.75a31.58,31.58,0,0,1,4.78-.34c2.51,0,6.66.4,6.66,3.75,0,1.86-1.42,3-3.13,3.38v.06c2.2.31,3.81,1.55,3.81,3.72,0,3.94-5,4.43-7.9,4.43-1.68,0-3.41-.12-4.22-.18Zm2.57,13a17.24,17.24,0,0,0,2.21.12c1.83,0,4.55-.43,4.55-2.6s-2.17-2.64-4.77-2.64h-2Zm0-6.92h2c2,0,4.1-.59,4.1-2.35,0-1.49-1.31-2.2-4-2.2a19.75,19.75,0,0,0-2.1.12Z"/><path class="cls-7" d="M528,77.57l-.21-1.89h-.1a5.6,5.6,0,0,1-4.59,2.23,4.27,4.27,0,0,1-4.58-4.31c0-3.63,3.22-5.61,9-5.58v-.31c0-1.24-.34-3.48-3.41-3.48a7.49,7.49,0,0,0-3.91,1.12l-.62-1.8a9.37,9.37,0,0,1,4.93-1.33c4.59,0,5.71,3.13,5.71,6.14V74a21.94,21.94,0,0,0,.24,3.6Zm-.4-7.66c-3-.06-6.36.46-6.36,3.38a2.41,2.41,0,0,0,2.58,2.6,3.72,3.72,0,0,0,3.62-2.51,2.67,2.67,0,0,0,.16-.87Z"/><path class="cls-7" d="M537.28,62.56V75.43h5.24V62.56h2.67V75.43h5.24V62.56h2.69v15H534.61v-15Z"/><path class="cls-7" d="M559.07,70.56c.06,3.69,2.42,5.21,5.15,5.21a9.74,9.74,0,0,0,4.15-.78l.47,2a12.24,12.24,0,0,1-5,.93c-4.62,0-7.38-3-7.38-7.57s2.66-8.09,7-8.09c4.89,0,6.2,4.31,6.2,7.07a10.16,10.16,0,0,1-.1,1.27Zm8-2c0-1.74-.71-4.44-3.78-4.44-2.76,0-4,2.54-4.19,4.44Z"/><path class="cls-7" d="M582.23,62.56v2.2h-6.51V77.57H573v-15Z"/><path class="cls-7" d="M598,69.94c0,5.55-3.85,8-7.47,8-4.07,0-7.2-3-7.2-7.72,0-5,3.29-8,7.44-8C595.06,62.22,598,65.35,598,69.94Zm-11.91.15c0,3.29,1.89,5.77,4.56,5.77s4.56-2.45,4.56-5.83c0-2.54-1.27-5.76-4.5-5.76S586.07,67.24,586.07,70.09Z"/><path class="cls-7" d="M435.51,99.76V102H429v12.81h-2.7v-15Z"/><path class="cls-7" d="M438.08,104.66c0-1.92-.06-3.47-.12-4.9h2.45l.12,2.57h.06a5.91,5.91,0,0,1,5.34-2.91c3.62,0,6.35,3.07,6.35,7.63,0,5.39-3.29,8.06-6.82,8.06a5.27,5.27,0,0,1-4.62-2.36h-.06v8.16h-2.7Zm2.7,4a6.29,6.29,0,0,0,.12,1.11A4.21,4.21,0,0,0,445,113c2.88,0,4.55-2.36,4.55-5.8,0-3-1.58-5.58-4.46-5.58A4.36,4.36,0,0,0,441,105a4.52,4.52,0,0,0-.18,1.11Z"/><path class="cls-7" d="M456.4,99.76l3.29,8.87c.34,1,.71,2.17,1,3.07h.06c.28-.9.59-2,1-3.13l3-8.81h2.88l-4.09,10.7c-1.95,5.14-3.29,7.78-5.15,9.39a7.4,7.4,0,0,1-3.35,1.77l-.68-2.3a7.18,7.18,0,0,0,2.39-1.33,8.29,8.29,0,0,0,2.29-3,1.82,1.82,0,0,0,.22-.65,2.46,2.46,0,0,0-.18-.71l-5.55-13.83Z"/><path class="cls-7" d="M471.41,106.05h1.3c2.29,0,3.84-1,3.84-2.45s-1.21-2.17-2.91-2.17a7.25,7.25,0,0,0-3.63,1.06l-.68-1.68a9.51,9.51,0,0,1,5-1.36c2.29,0,5.08,1,5.08,3.94,0,1.86-1.7,3.07-3.38,3.41v.06c2.24.19,4.1,1.55,4.1,3.75,0,3.26-3.32,4.47-6.48,4.47a10.32,10.32,0,0,1-4.87-1.21l.71-1.83a8.68,8.68,0,0,0,4,1c2.27,0,3.69-1.08,3.69-2.57,0-2-2.11-2.58-4.37-2.58h-1.36Z"/><path class="cls-7" d="M491.84,114.77l-.22-1.9h-.09a5.59,5.59,0,0,1-4.59,2.24,4.28,4.28,0,0,1-4.59-4.31c0-3.63,3.22-5.61,9-5.58v-.31c0-1.24-.34-3.48-3.41-3.48a7.51,7.51,0,0,0-3.91,1.12l-.62-1.8a9.37,9.37,0,0,1,4.93-1.33c4.59,0,5.71,3.13,5.71,6.14v5.61a20.82,20.82,0,0,0,.25,3.6Zm-.41-7.66c-3-.06-6.35.46-6.35,3.38a2.41,2.41,0,0,0,2.57,2.6,3.75,3.75,0,0,0,3.63-2.51,3,3,0,0,0,.15-.87Z"/><path class="cls-7" d="M686.78,122.76c-6.23,3.6-11.72,1.72-14.39-2.9-2.76-4.78-1-10.27,4.49-13.44,5.74-3.31,11.57-1.91,14.36,2.92S692.15,119.66,686.78,122.76Zm-8.41-13.87c-3.86,2.23-6.12,6.33-4,10s6.76,3.84,10.86,1.46c3.6-2.07,6.28-6.12,4-10S682.35,106.59,678.37,108.89Z"/><path class="cls-7" d="M698.41,134.23l-13,7.5-1.36-2.36L695.17,133l-3.49-6-11.12,6.42L679.21,131l13-7.5Z"/><path class="cls-7" d="M694.46,143.38c-3.17,1.9-3.31,4.7-1.94,7.06a9.9,9.9,0,0,0,2.75,3.21L693.81,155a12,12,0,0,1-3.3-3.86c-2.31-4-1.06-7.91,2.86-10.17s8.34-1.74,10.53,2.05c2.45,4.24-.63,7.53-3,8.91a11.78,11.78,0,0,1-1.14.55Zm5.69,6c1.52-.84,3.48-2.83,2-5.49-1.38-2.39-4.19-2.17-5.94-1.41Z"/><path class="cls-7" d="M704.15,154c1.66-1,3-1.79,4.18-2.55l1.22,2.12-2.16,1.39,0,.06a5.9,5.9,0,0,1,5.19,3.16c1.81,3.14.52,7-3.43,9.32-4.67,2.69-8.62,1.18-10.39-1.88a5.27,5.27,0,0,1-.27-5.18l0-.05-7.06,4.07-1.35-2.33ZM702,158.3a5.4,5.4,0,0,0-.9.67,4.2,4.2,0,0,0-.72,5.14c1.44,2.49,4.32,2.77,7.3,1,2.6-1.51,4-4.16,2.6-6.66a4.35,4.35,0,0,0-5-1.88,4.67,4.67,0,0,0-1.06.39Z"/><path class="cls-7" d="M708.37,181.49l1.53-1.13,0-.08a5.61,5.61,0,0,1-4.23-2.86,4.28,4.28,0,0,1,1.44-6.13c3.14-1.81,6.47,0,9.35,5l.26-.15c1.08-.62,2.84-2,1.31-4.69a7.53,7.53,0,0,0-2.92-2.83l1.24-1.43a9.24,9.24,0,0,1,3.62,3.6c2.3,4,.14,6.51-2.46,8l-4.86,2.8a21.82,21.82,0,0,0-3,2Zm6.43-4.18c-1.44-2.61-3.58-5.27-6.11-3.81a2.41,2.41,0,0,0-1,3.53,3.72,3.72,0,0,0,4,1.88,2.82,2.82,0,0,0,.83-.29Z"/><path class="cls-7" d="M729.64,188.32l-1.88,1.09-2.34-4.06-11.12,6.42L713,189.44,724.07,183,721.73,179l1.88-1.08Z"/><path class="cls-7" d="M732.09,192.56l-5.48,3.17c-2.07,1.19-3.37,1.91-5.28,2.87l0,.1c2-.14,3.21-.21,5.21-.22l9.05.18,1.6,2.77-13,7.5-1.3-2.26,5.5-3.17c2.12-1.23,3.26-1.81,5.41-2.91l-.05-.08c-2.14.13-3.51.17-5.26.17-2.73-.07-6-.05-9.14-.13l-1.56-2.71,13-7.5Z"/><path class="cls-7" d="M739.23,205.3a31.56,31.56,0,0,1,2.68,4c1.26,2.17,3,6,.09,7.65-1.62.93-3.32.26-4.5-1l0,0c.83,2.07.56,4.08-1.32,5.17-3.41,2-6.32-2.08-7.79-4.63-.84-1.45-1.6-3-2-3.75Zm-10,8.74a15.79,15.79,0,0,0,1,2c.92,1.58,2.66,3.73,4.54,2.65s1.19-3.2-.11-5.46l-1-1.72Zm6-3.43,1,1.77c1,1.75,2.55,3.25,4.08,2.37,1.29-.74,1.26-2.23-.11-4.59a20.31,20.31,0,0,0-1.16-1.77Z"/><path class="cls-7" d="M748.49,221l-5.24,3,3.57,6.18,5.23-3,1.35,2.34-13,7.5-1.35-2.33,5.88-3.4-3.57-6.17-5.88,3.39-1.35-2.33,13-7.51Z"/><path class="cls-7" d="M756,248.8c-4.8,2.77-8.82.65-10.63-2.49-2-3.52-1-7.72,3.09-10.09,4.35-2.51,8.54-1.14,10.62,2.46S760,246.5,756,248.8ZM750,238.56c-2.85,1.64-4.05,4.52-2.72,6.83s4.4,2.72,7.33,1c2.2-1.27,4.36-4,2.74-6.77S752.42,237.13,750,238.56Z"/><path class="cls-7" d="M758,253.4c-3.17,1.9-3.31,4.7-1.94,7.06a9.78,9.78,0,0,0,2.75,3.21l-1.46,1.38a12,12,0,0,1-3.3-3.86c-2.31-4-1.06-7.91,2.86-10.17s8.34-1.74,10.53,2c2.44,4.24-.64,7.52-3,8.9a10.23,10.23,0,0,1-1.14.56Zm5.69,6c1.52-.84,3.48-2.83,1.94-5.49-1.37-2.39-4.18-2.17-5.93-1.41Z"/><path class="cls-7" d="M771,269.67c1.67-1,3-1.79,4.18-2.55l1.23,2.12-2.17,1.39,0,.06a5.89,5.89,0,0,1,5.19,3.16c1.82,3.14.52,7-3.43,9.32-4.67,2.69-8.62,1.18-10.39-1.88a5.27,5.27,0,0,1-.27-5.18l0-.05-7.06,4.07-1.35-2.33ZM768.84,274a6,6,0,0,0-.91.67,4.22,4.22,0,0,0-.72,5.14c1.44,2.49,4.32,2.77,7.3,1.05,2.61-1.51,4-4.17,2.6-6.66a4.34,4.34,0,0,0-5-1.88,4.5,4.5,0,0,0-1.06.39Z"/><path class="cls-7" d="M777.85,287.82c-3.17,1.89-3.31,4.69-1.94,7.06a9.78,9.78,0,0,0,2.75,3.21l-1.46,1.38a12.1,12.1,0,0,1-3.3-3.86c-2.31-4-1.06-7.91,2.86-10.17s8.34-1.74,10.53,2.05c2.45,4.24-.64,7.52-3,8.9a12.41,12.41,0,0,1-1.14.56Zm5.69,5.95c1.52-.84,3.48-2.84,2-5.5-1.38-2.39-4.19-2.16-5.94-1.4Z"/><path class="cls-7" d="M793.08,298.21l-11.14,6.43,2.62,4.54,11.14-6.44,1.33,2.31-11.14,6.44,2.62,4.54,11.14-6.44,1.35,2.34-13,7.5-9.26-16,13-7.5Z"/><path class="cls-7" d="M797.05,321.08c-3.16,1.9-3.3,4.7-1.94,7.06a9.9,9.9,0,0,0,2.75,3.21l-1.46,1.38a12,12,0,0,1-3.3-3.86c-2.31-4-1.06-7.91,2.86-10.17s8.34-1.74,10.53,2.05c2.45,4.24-.63,7.52-3,8.9a9.41,9.41,0,0,1-1.15.56Zm5.69,5.95c1.52-.84,3.48-2.83,2-5.49-1.38-2.39-4.19-2.17-5.93-1.41Z"/><path class="cls-7" d="M812.3,331.5l-5.23,3,3.56,6.17,5.24-3,1.35,2.34-13,7.5-1.35-2.34,5.88-3.39-3.57-6.18-5.87,3.4L798,336.66l13-7.5Z"/><path class="cls-7" d="M820.7,346l-5.48,3.17c-2.06,1.19-3.37,1.91-5.28,2.87l0,.1c2-.14,3.21-.21,5.21-.22l9.05.18,1.6,2.77-13,7.5-1.3-2.26L817,357c2.13-1.23,3.26-1.81,5.41-2.91l0-.08c-2.15.13-3.52.17-5.27.17-2.73-.07-6-.05-9.14-.13l-1.56-2.71,13-7.5Z"/><path class="cls-7" d="M821.86,364.06c-3.16,1.9-3.3,4.7-1.93,7.06a9.78,9.78,0,0,0,2.75,3.21l-1.46,1.38a12,12,0,0,1-3.3-3.86c-2.32-4-1.06-7.91,2.86-10.17s8.34-1.74,10.53,2.05c2.44,4.24-.64,7.52-3,8.9a10.23,10.23,0,0,1-1.14.56Zm5.7,5.95c1.52-.84,3.48-2.83,1.94-5.49-1.38-2.39-4.18-2.17-5.93-1.41Z"/><path class="cls-7" d="M675.68,169.26l-13,7.5-1.35-2.33L672.48,168l-2.58-4.46-3.38,2c-3.65,2.11-6.3,3.17-8.37,2.11a4.36,4.36,0,0,1-2.3-2.11l1.72-1.31a3.34,3.34,0,0,0,1.28,1c1.58.69,3.48-.23,6.38-1.9l5.24-3Z"/><path class="cls-7" d="M679.21,175.38l-5.48,3.16,1.29,2.23c3.67-1.58,7.31-.68,9.11,2.44,2,3.38.6,7.24-3.4,9.55-4.22,2.44-8.39,1.41-10.28-1.87-1.8-3.11-.81-6.73,2.74-9.14l-1.26-2.17-5.71,3.3-1.34-2.31,13-7.5Zm.1,15.05c2.44-1.41,4.33-4,3-6.28s-4.49-2.06-7.12-.54-4.3,4-3,6.3S676.84,191.86,679.31,190.43Z"/><path class="cls-7" d="M698.92,199.33a19.5,19.5,0,0,1-2.16-2.37c-1.53-1.91-3.12-3-5.11-3.2a10.76,10.76,0,0,0-5.12,1.05l.05.08a5.69,5.69,0,0,1,5.53,2.82c1.84,3.2.91,6.85-3.23,9.24s-8.14,1.77-10.34-2c-2.64-4.57.87-8.6,5.19-11.1,3-1.7,5.73-2.48,8.36-2.14s4.4,1.54,6.29,3.82a20.69,20.69,0,0,0,2.56,2.82Zm-8.84-1.09a3.65,3.65,0,0,0-3.46-1.91,6.67,6.67,0,0,0-3.14,1c-2.14,1.24-4.63,4.07-3.14,6.65s4.59,2.11,7,.73C689.44,203.45,691.7,201,690.08,198.24Z"/><path class="cls-7" d="M698.34,208.51l-4.43,2.55a12.72,12.72,0,0,1,1.38,2c1.62,2.79,2.09,6.28-1.11,8.13a4.24,4.24,0,0,1-3.78.39c-2-.73-3.53-2.65-4.53-4.37a35.92,35.92,0,0,1-1.82-3.6L697,206.17ZM687,215.06a14.56,14.56,0,0,0,.84,1.7c1,1.8,2.92,3.33,4.94,2.17s1.65-3.46.62-5.24a11.28,11.28,0,0,0-1.14-1.66Zm18.12,5.15-13,7.51-1.35-2.34,13-7.5Z"/><path class="cls-7" d="M708,225.18l-1.72,3.46c-.44.9-.88,1.7-1.36,2.54l0,.08c1,0,1.94,0,2.89.05l3.82.23,1.47,2.55-8.84-.8-4.08,8.44L698.64,239l1.83-3.59c.46-.95.93-1.79,1.45-2.7l0-.05c-1,0-2,0-3-.07l-4-.19-1.51-2.61,9.3.79,3.82-8.07Z"/><path class="cls-7" d="M717.6,242.24a31.35,31.35,0,0,1,2.68,4c1.26,2.18,3,6,.09,7.65a3.56,3.56,0,0,1-4.5-1l0,0c.83,2.06.56,4.08-1.32,5.16-3.41,2-6.32-2.08-7.79-4.63-.84-1.45-1.6-3-2-3.74Zm-10,8.74a15.79,15.79,0,0,0,1,2c.92,1.58,2.66,3.73,4.54,2.64s1.19-3.2-.11-5.45l-1-1.72Zm6-3.43,1,1.77c1,1.74,2.56,3.25,4.09,2.37,1.29-.75,1.26-2.23-.11-4.6a20,20,0,0,0-1.16-1.76Z"/><path class="cls-7" d="M725.94,271.07c-4.81,2.78-8.82.66-10.64-2.48-2-3.52-1-7.72,3.09-10.09,4.35-2.52,8.55-1.14,10.62,2.46S729.91,268.78,725.94,271.07Zm-6.09-10.23c-2.84,1.64-4.05,4.52-2.71,6.83s4.4,2.72,7.32,1c2.21-1.27,4.36-4,2.75-6.77S722.32,259.41,719.85,260.84Z"/><path class="cls-7" d="M740.22,281.05l-13,7.5-1.36-2.36L737,279.77l-3.49-6-11.12,6.42L721,277.81l13-7.5Z"/><path class="cls-7" d="M738.19,287.33c1.67-1,3-1.79,4.18-2.55l1.23,2.12-2.17,1.39,0,.06a5.89,5.89,0,0,1,5.19,3.16c1.82,3.14.52,7-3.42,9.32-4.68,2.69-8.63,1.18-10.4-1.88a5.29,5.29,0,0,1-.27-5.18l0,0-7.06,4.07-1.35-2.33Zm-2.11,4.34a6,6,0,0,0-.91.67,4.21,4.21,0,0,0-.72,5.14c1.45,2.49,4.32,2.77,7.3,1,2.61-1.51,4-4.16,2.6-6.66a4.34,4.34,0,0,0-5-1.88,4.5,4.5,0,0,0-1.06.39Z"/><path class="cls-7" d="M751.65,315.61c-4.8,2.78-8.82.66-10.63-2.49-2-3.51-1-7.71,3.09-10.09,4.35-2.51,8.54-1.13,10.62,2.46S755.63,313.32,751.65,315.61Zm-6.08-10.23c-2.85,1.64-4.05,4.52-2.72,6.83s4.4,2.72,7.33,1c2.2-1.27,4.36-4,2.75-6.78S748,304,745.57,305.38Z"/><path class="cls-7" d="M752.6,331.39a10.12,10.12,0,0,1-2.91-3.3c-2.26-3.92-1.08-8,2.9-10.3a7.62,7.62,0,0,1,10.93,3,9,9,0,0,1,1.22,3.66l-2.14.52a6.23,6.23,0,0,0-1-3.1c-1.72-3-4.85-3.32-7.56-1.75-3,1.73-3.75,4.74-2.26,7.31a7.76,7.76,0,0,0,2.32,2.53Z"/><path class="cls-7" d="M767,342.22c-4.81,2.77-8.83.65-10.64-2.49-2-3.52-1-7.72,3.09-10.09,4.35-2.51,8.54-1.14,10.62,2.46S771,339.92,767,342.22ZM760.93,332c-2.85,1.65-4,4.52-2.72,6.83s4.4,2.73,7.33,1c2.2-1.27,4.36-4,2.75-6.78S763.4,330.56,760.93,332Z"/><path class="cls-7" d="M774.93,341.54a32.59,32.59,0,0,1,2.69,4c1.25,2.17,3,6,.08,7.65a3.54,3.54,0,0,1-4.49-1l-.06,0c.84,2.06.57,4.07-1.31,5.16-3.41,2-6.32-2.08-7.8-4.63-.83-1.45-1.59-3-1.94-3.75Zm-10,8.74a17.29,17.29,0,0,0,1,2c.92,1.59,2.66,3.73,4.54,2.65s1.2-3.2-.11-5.45l-1-1.72Zm6-3.43,1,1.78c1,1.74,2.55,3.25,4.09,2.36,1.29-.74,1.25-2.23-.11-4.59a18.46,18.46,0,0,0-1.17-1.76Z"/><path class="cls-7" d="M668,684.1c6.23,3.6,7.35,9.29,4.68,13.91-2.76,4.78-8.4,6-13.88,2.84-5.74-3.32-7.44-9.06-4.65-13.9S662.67,681,668,684.1Zm-7.81,14.22c3.87,2.23,8.54,2.14,10.66-1.54s-.06-7.77-4.17-10.14c-3.6-2.08-8.44-2.37-10.69,1.52S656.26,696,660.23,698.32Z"/><path class="cls-7" d="M672.16,668.3l13,7.5-1.36,2.36-11.12-6.42-3.49,6,11.12,6.41L679,686.54,666,679Z"/><path class="cls-7" d="M679.39,655.76l1.88,1.08-2.34,4.06,11.12,6.42-1.35,2.33-11.12-6.41-2.34,4-1.88-1.09Z"/><path class="cls-7" d="M681.84,651.52l5.48,3.16c2.07,1.2,3.34,2,5.13,3.14l.07-.06c-1.13-1.69-1.78-2.68-2.79-4.41l-4.37-7.93,1.6-2.76,13,7.5-1.3,2.26-5.5-3.18C691,648,690,647.33,687.92,646l0,.08c1.18,1.79,1.9,3,2.79,4.47,1.3,2.4,3,5.27,4.45,8l-1.57,2.71-13-7.5Z"/><path class="cls-7" d="M689.25,638.69l1.68-2.9,7.91,1.42c1.15.23,3.06.58,4.26.88l0-.06c-.8-.85-2.45-2.77-3.58-4.1l-4.45-5.37,1.68-2.92,13.53,6.59-1.3,2.25-6.38-3.28c-1.44-.73-3.17-1.58-4.78-2.44l-.05.08c1,1,1.83,2,3.4,3.85l5.11,6.29-1,1.71-7.75-1.39c-1.46-.31-3.67-.83-5.06-1.21l-.07.11c1.5.93,3.17,2,4.55,2.91l6,3.87-1.25,2.18Z"/><path class="cls-7" d="M716.23,622l-1.75-.75-.05.08a5.56,5.56,0,0,1-.36,5.09,4.27,4.27,0,0,1-6,1.82c-3.14-1.82-3.25-5.6-.32-10.61l-.27-.15c-1.08-.62-3.18-1.44-4.72,1.21a7.5,7.5,0,0,0-1,4l-1.87-.37a9.35,9.35,0,0,1,1.31-4.93c2.3-4,5.57-3.38,8.17-1.87l4.86,2.8a22.32,22.32,0,0,0,3.24,1.59Zm-6.84-3.48c-1.54,2.55-2.77,5.74-.25,7.2a2.41,2.41,0,0,0,3.54-.93,3.74,3.74,0,0,0-.35-4.4,3,3,0,0,0-.68-.56Z"/><path class="cls-7" d="M712.27,598.82l13,7.5-1.35,2.34-11.15-6.44-2.57,4.46,3.38,2c3.65,2.11,5.9,3.87,6,6.2a4.35,4.35,0,0,1-.68,3l-2-.83a3.29,3.29,0,0,0,.2-1.59c-.19-1.72-1.94-2.91-4.83-4.59l-5.24-3Z"/><path class="cls-7" d="M715.82,592.67l4.4,2.54a14.79,14.79,0,0,1,1.11-2.22c1.69-2.93,4.38-5.49,7.85-3.49a4.28,4.28,0,0,1,2.19,3.09c.38,2.12-.65,4.6-1.76,6.51a36.41,36.41,0,0,1-2.2,3.38L714.47,595Zm11.36,6.56a17.43,17.43,0,0,0,1.11-1.68c1-1.78,1.75-4.4-.42-5.66s-4.11.79-5.11,2.53a12.87,12.87,0,0,0-.85,1.77Z"/><path class="cls-7" d="M723.54,579.3l5.23,3,3.57-6.18-5.24-3,1.35-2.34,13,7.5-1.35,2.34-5.88-3.39-3.57,6.17,5.88,3.4-1.35,2.33-13-7.5Z"/><path class="cls-7" d="M732,564.64l4.43,2.56a13.63,13.63,0,0,1,1.06-2.21c1.61-2.79,4.4-5,7.59-3.1a4.26,4.26,0,0,1,2.24,3.08c.38,2.12-.53,4.38-1.52,6.1a35,35,0,0,1-2.21,3.38L730.65,567Zm6.76-11.7,13,7.5-1.35,2.34-13-7.51Zm4.6,18.26a14.59,14.59,0,0,0,1-1.57c1-1.8,1.42-4.2-.59-5.36s-3.83.3-4.85,2.07a11.25,11.25,0,0,0-.87,1.82Z"/><path class="cls-7" d="M748.68,551.76c3.22,1.79,5.72.51,7.08-1.86a9.89,9.89,0,0,0,1.41-4l1.92.57a12,12,0,0,1-1.69,4.79c-2.31,4-6.32,4.87-10.24,2.61s-5.68-6.36-3.49-10.14c2.45-4.25,6.83-3.22,9.22-1.84a9.68,9.68,0,0,1,1.06.72Zm2.3-7.91c-1.48-.89-4.19-1.6-5.73,1.06-1.38,2.39.22,4.71,1.75,5.84Z"/><path class="cls-7" d="M756.28,532.38c-1.66-1-3-1.68-4.3-2.34l1.22-2.12,2.29,1.18,0-.06a5.89,5.89,0,0,1,.15-6.07c1.81-3.14,5.83-4,9.78-1.69,4.67,2.7,5.34,6.87,3.57,9.94a5.28,5.28,0,0,1-4.35,2.82l0,.05,7.06,4.08-1.35,2.33Zm4.82-.33a6.37,6.37,0,0,0,1,.45,4.23,4.23,0,0,0,4.82-2c1.44-2.5.23-5.13-2.75-6.85-2.6-1.5-5.62-1.42-7.06,1.08A4.35,4.35,0,0,0,758,530a4.46,4.46,0,0,0,.88.72Z"/><path class="cls-7" d="M778,515l-1.75-.75,0,.08a5.59,5.59,0,0,1-.36,5.09,4.28,4.28,0,0,1-6,1.82c-3.14-1.82-3.25-5.6-.32-10.61l-.27-.15c-1.07-.62-3.18-1.44-4.71,1.21a7.51,7.51,0,0,0-1,4l-1.87-.37A9.33,9.33,0,0,1,763,510.3c2.3-4,5.57-3.38,8.17-1.87l4.86,2.8a22.32,22.32,0,0,0,3.24,1.59Zm-6.83-3.48c-1.55,2.55-2.78,5.74-.25,7.2a2.41,2.41,0,0,0,3.54-.93,3.76,3.76,0,0,0-.36-4.4,2.74,2.74,0,0,0-.68-.56Z"/><path class="cls-7" d="M786.19,499.68a9.91,9.91,0,0,1-1.4,4.16c-2.27,3.92-6.4,4.94-10.37,2.64a7.62,7.62,0,0,1-2.87-11,9.2,9.2,0,0,1,2.56-2.89l1.52,1.59a6.36,6.36,0,0,0-2.2,2.38c-1.72,3-.45,5.87,2.26,7.43,3,1.74,6,.88,7.47-1.7a7.78,7.78,0,0,0,1-3.27Z"/><path class="cls-7" d="M776.59,487.41l11.15,6.43,3.45-6-11.14-6.43,1.35-2.34,11.22,6.48.8-1.32,5.81,3.52-1.06,1.83L794,487.31l-5.74,9.94-13-7.51Z"/><path class="cls-7" d="M791.43,477.71c3.22,1.8,5.72.51,7.08-1.85a9.89,9.89,0,0,0,1.41-4l1.92.57a12.15,12.15,0,0,1-1.69,4.79c-2.31,4-6.32,4.87-10.24,2.61s-5.68-6.36-3.49-10.15c2.45-4.24,6.83-3.21,9.22-1.83a11.27,11.27,0,0,1,1.05.71Zm2.3-7.9c-1.49-.9-4.19-1.6-5.73,1.06-1.38,2.39.22,4.71,1.75,5.84Z"/><path class="cls-7" d="M792.82,459.3l5.24,3,3.56-6.17-5.23-3,1.34-2.33,13,7.5-1.35,2.34-5.88-3.4-3.56,6.18,5.88,3.39-1.35,2.34-13-7.51Z"/><path class="cls-7" d="M801.31,444.59l5.64,3.25.33-.56-2.82-8.14,1.66-2.88,2.61,9.06c1.42-2,3.55-2.42,6.47-2.1a32.44,32.44,0,0,0,4,.44l-1.43,2.47a20,20,0,0,1-3.35-.33c-2.61-.32-4.27.33-5.55,2.53l-.26.46,5.72,3.3L813,454.43l-13-7.51Z"/><path class="cls-7" d="M808.65,431.89l5.47,3.16c2.07,1.19,3.34,2,5.14,3.14l.07-.06c-1.14-1.7-1.79-2.68-2.79-4.41l-4.37-7.93,1.59-2.76,13,7.5-1.31,2.26-5.5-3.18c-2.12-1.23-3.19-1.92-5.22-3.23l-.05.08c1.18,1.79,1.91,3,2.79,4.47,1.3,2.4,3,5.26,4.45,8l-1.57,2.71-13-7.5Z"/><path class="cls-7" d="M318,701.55v2.27h-8.4v18.63h-2.7v-20.9Z"/><path class="cls-7" d="M331,714.82c0,5.55-3.85,8-7.47,8-4.07,0-7.2-3-7.2-7.72,0-5,3.29-8,7.44-8C328,707.1,331,710.23,331,714.82ZM319,715c0,3.28,1.89,5.76,4.56,5.76s4.56-2.45,4.56-5.82c0-2.55-1.27-5.77-4.5-5.77S319,712.12,319,715Z"/><path class="cls-7" d="M344.28,707.44v2.17H339.6v12.84h-2.7V709.61h-4.68v-2.17Z"/><path class="cls-7" d="M359.84,714.82c0,5.55-3.84,8-7.47,8-4.06,0-7.2-3-7.2-7.72,0-5,3.29-8,7.45-8S359.84,710.23,359.84,714.82Zm-11.91.16c0,3.28,1.9,5.76,4.56,5.76s4.56-2.45,4.56-5.82c0-2.55-1.27-5.77-4.5-5.77S347.93,712.12,347.93,715Z"/><path class="cls-7" d="M363.22,707.63a31.33,31.33,0,0,1,4.77-.34c2.51,0,6.67.4,6.67,3.75a3.55,3.55,0,0,1-3.13,3.38v.06c2.2.31,3.81,1.55,3.81,3.72,0,3.94-5,4.44-7.91,4.44-1.67,0-3.41-.13-4.21-.19Zm2.57,13a17,17,0,0,0,2.2.13c1.83,0,4.56-.44,4.56-2.61s-2.17-2.63-4.78-2.63h-2Zm0-6.91h2.05c2,0,4.09-.59,4.09-2.36,0-1.49-1.3-2.2-4-2.2a20,20,0,0,0-2.11.12Z"/><path class="cls-7" d="M381.41,707.44v6h7.14v-6h2.69v15h-2.69v-6.79h-7.14v6.79h-2.69v-15Z"/><path class="cls-7" d="M409.29,714.82c0,5.55-3.85,8-7.48,8-4.06,0-7.19-3-7.19-7.72,0-5,3.29-8,7.44-8C406.37,707.1,409.29,710.23,409.29,714.82Zm-11.91.16c0,3.28,1.89,5.76,4.56,5.76s4.56-2.45,4.56-5.82c0-2.55-1.28-5.77-4.5-5.77S397.38,712.12,397.38,715Z"/><path class="cls-7" d="M423.42,721.89a10,10,0,0,1-4.31.87c-4.53,0-7.47-3.07-7.47-7.66a7.62,7.62,0,0,1,8.06-8,9.12,9.12,0,0,1,3.78.78l-.62,2.11a6.21,6.21,0,0,0-3.16-.72c-3.44,0-5.3,2.55-5.3,5.68,0,3.47,2.23,5.61,5.21,5.61a7.8,7.8,0,0,0,3.35-.74Z"/><path class="cls-7" d="M437.25,707.44v2.17h-4.69v12.84h-2.69V709.61h-4.69v-2.17Z"/><path class="cls-7" d="M442.27,707.44v5.09a14.48,14.48,0,0,1,2.48-.16c3.38,0,6.94,1.06,6.94,5.06a4.25,4.25,0,0,1-1.58,3.44c-1.64,1.39-4.31,1.74-6.51,1.74a38.16,38.16,0,0,1-4-.22V707.44Zm0,13.12a16.07,16.07,0,0,0,2,.12c2.05,0,4.68-.68,4.68-3.19s-2.72-3.16-4.74-3.16a13.2,13.2,0,0,0-2,.15Z"/><path class="cls-7" d="M474,707.44v15h-2.73V709.61h-7v12.84h-2.7v-15Z"/><path class="cls-7" d="M479.93,715.44c.06,3.69,2.42,5.21,5.15,5.21a9.92,9.92,0,0,0,4.15-.77l.47,2a12.26,12.26,0,0,1-5,.93c-4.62,0-7.37-3-7.37-7.57s2.66-8.09,7-8.09c4.9,0,6.2,4.31,6.2,7.07a10.59,10.59,0,0,1-.09,1.27Zm8-2c0-1.74-.71-4.43-3.78-4.43-2.76,0-4,2.54-4.19,4.43Z"/><path class="cls-7" d="M493.94,712.34c0-1.92-.06-3.47-.12-4.9h2.45l.12,2.58h.06a5.92,5.92,0,0,1,5.34-2.92c3.62,0,6.35,3.07,6.35,7.63,0,5.39-3.29,8.06-6.82,8.06a5.27,5.27,0,0,1-4.62-2.36h-.06v8.16h-2.7Zm2.7,4a6.41,6.41,0,0,0,.12,1.12,4.21,4.21,0,0,0,4.1,3.19c2.88,0,4.55-2.36,4.55-5.8,0-3-1.58-5.58-4.46-5.58a4.37,4.37,0,0,0-4.13,3.38,4.6,4.6,0,0,0-.18,1.12Z"/><path class="cls-7" d="M513.1,715.44c.06,3.69,2.42,5.21,5.15,5.21a9.92,9.92,0,0,0,4.15-.77l.47,2a12.29,12.29,0,0,1-5,.93c-4.62,0-7.38-3-7.38-7.57s2.67-8.09,7-8.09c4.9,0,6.2,4.31,6.2,7.07a10.59,10.59,0,0,1-.09,1.27Zm8-2c0-1.74-.71-4.43-3.78-4.43-2.76,0-4,2.54-4.19,4.43Z"/><path class="cls-7" d="M527.05,707.63a31.43,31.43,0,0,1,4.77-.34c2.51,0,6.67.4,6.67,3.75a3.55,3.55,0,0,1-3.13,3.38v.06c2.2.31,3.81,1.55,3.81,3.72,0,3.94-5,4.44-7.9,4.44-1.68,0-3.42-.13-4.22-.19Zm2.57,13a17.13,17.13,0,0,0,2.2.13c1.83,0,4.56-.44,4.56-2.61s-2.17-2.63-4.77-2.63h-2Zm0-6.91h2.05c2,0,4.09-.59,4.09-2.36,0-1.49-1.3-2.2-4-2.2a20,20,0,0,0-2.11.12Z"/><path class="cls-7" d="M556.19,714.82c0,5.55-3.84,8-7.47,8-4.06,0-7.19-3-7.19-7.72,0-5,3.28-8,7.44-8S556.19,710.23,556.19,714.82Zm-11.91.16c0,3.28,1.9,5.76,4.56,5.76s4.56-2.45,4.56-5.82c0-2.55-1.27-5.77-4.5-5.77S544.28,712.12,544.28,715Z"/><path class="cls-7" d="M560.87,713.74h1.3c2.3,0,3.85-1.06,3.85-2.45s-1.21-2.17-2.92-2.17a7.27,7.27,0,0,0-3.63,1l-.68-1.67a9.55,9.55,0,0,1,5-1.37c2.3,0,5.09,1,5.09,3.94,0,1.86-1.71,3.07-3.38,3.41v.06c2.23.19,4.09,1.55,4.09,3.75,0,3.26-3.32,4.47-6.48,4.47a10.35,10.35,0,0,1-4.87-1.21l.72-1.83a8.62,8.62,0,0,0,4,1c2.26,0,3.69-1.08,3.69-2.57,0-2-2.11-2.57-4.38-2.57h-1.36Z"/><path class="cls-7" d="M575.5,707.44v6.33c0,2.39,0,3.87-.15,6l.09,0c.9-1.82,1.43-2.88,2.42-4.62l4.68-7.75h3.19v15h-2.6v-6.36c0-2.45.06-3.72.18-6.14h-.09c-1,1.93-1.61,3.14-2.48,4.66-1.42,2.32-3.07,5.2-4.68,7.84h-3.13v-15Z"/><path class="cls-7" d="M600.21,707.44v2.17h-4.68v12.84h-2.7V709.61h-4.68v-2.17Z"/><path class="cls-7" d="M605.23,707.44v5.09a14.56,14.56,0,0,1,2.48-.16c3.38,0,6.95,1.06,6.95,5.06a4.25,4.25,0,0,1-1.58,3.44c-1.65,1.39-4.31,1.74-6.52,1.74a38.32,38.32,0,0,1-4-.22V707.44Zm0,13.12a16.39,16.39,0,0,0,2,.12c2,0,4.68-.68,4.68-3.19s-2.73-3.16-4.75-3.16a13.2,13.2,0,0,0-1.95.15Z"/><path class="cls-7" d="M355,744.83a31.58,31.58,0,0,1,4.78-.34c2.51,0,6.66.4,6.66,3.75a3.55,3.55,0,0,1-3.13,3.38v.06c2.2.31,3.82,1.55,3.82,3.72,0,3.94-5,4.44-7.91,4.44-1.67,0-3.41-.13-4.22-.19Zm2.58,13a15.32,15.32,0,0,0,2.2.13c1.83,0,4.56-.44,4.56-2.61s-2.18-2.63-4.78-2.63h-2Zm0-6.91h2c2,0,4.1-.59,4.1-2.36,0-1.49-1.31-2.2-4-2.2a20,20,0,0,0-2.11.12Z"/><path class="cls-7" d="M381.29,759.09A10,10,0,0,1,377,760c-4.52,0-7.47-3.07-7.47-7.66a7.62,7.62,0,0,1,8.06-8,9.12,9.12,0,0,1,3.78.78l-.62,2.11a6.21,6.21,0,0,0-3.16-.72c-3.44,0-5.3,2.55-5.3,5.68,0,3.47,2.23,5.61,5.21,5.61a7.8,7.8,0,0,0,3.35-.74Z"/><path class="cls-7" d="M385.82,752.64c.06,3.69,2.41,5.21,5.14,5.21a10,10,0,0,0,4.16-.77l.46,1.95a12.2,12.2,0,0,1-5,.93c-4.62,0-7.38-3-7.38-7.57s2.67-8.09,7-8.09c4.9,0,6.2,4.31,6.2,7.07a10.59,10.59,0,0,1-.09,1.27Zm8-1.95c0-1.74-.71-4.43-3.78-4.43-2.76,0-4,2.54-4.18,4.43Z"/><path class="cls-7" d="M416.54,744.64v2.17h-4.68v12.84h-2.7V746.81h-4.68v-2.17Z"/><path class="cls-7" d="M421.43,744.64V751c0,2.39,0,3.87-.15,6l.09,0c.9-1.82,1.43-2.88,2.42-4.62l4.68-7.75h3.2v15h-2.61v-6.36c0-2.45.06-3.72.19-6.13h-.09c-1,1.92-1.62,3.13-2.49,4.65-1.42,2.32-3.07,5.2-4.68,7.84h-3.13v-15Z"/><path class="cls-7" d="M448.44,744.64v15h-2.73V746.81h-7v12.84H436v-15Z"/><path class="cls-7" d="M455.5,744.64v5.12a13.21,13.21,0,0,1,2.45-.19c3.23,0,6.48,1.34,6.48,5a4.25,4.25,0,0,1-1.55,3.47c-1.64,1.39-4.06,1.74-6,1.74a38.37,38.37,0,0,1-4-.22v-15Zm0,13.12a15.8,15.8,0,0,0,1.89.12c2.08,0,4.34-.87,4.34-3.19s-2.17-3.16-4.21-3.16a12.84,12.84,0,0,0-2,.15ZM469,744.64v15h-2.7v-15Z"/><path class="cls-7" d="M489.2,744.64v2.2h-6.51v12.81H480v-15Z"/><path class="cls-7" d="M491.77,749.54c0-1.92-.06-3.47-.12-4.9h2.45l.12,2.58h.06a5.92,5.92,0,0,1,5.34-2.92c3.62,0,6.35,3.07,6.35,7.63,0,5.4-3.29,8.06-6.82,8.06a5.27,5.27,0,0,1-4.62-2.36h-.06v8.16h-2.7Zm2.7,4a6.3,6.3,0,0,0,.12,1.12,4.21,4.21,0,0,0,4.1,3.19c2.88,0,4.55-2.36,4.55-5.8,0-3-1.58-5.58-4.46-5.58a4.37,4.37,0,0,0-4.13,3.38,4.6,4.6,0,0,0-.18,1.12Z"/><path class="cls-7" d="M510.09,744.64l3.29,8.87c.34,1,.71,2.17,1,3.07h.06c.28-.9.59-2.05,1-3.13l3-8.81h2.88l-4.09,10.7c-2,5.15-3.29,7.78-5.15,9.4a7.38,7.38,0,0,1-3.34,1.76l-.69-2.29a7.13,7.13,0,0,0,2.39-1.34,8.24,8.24,0,0,0,2.29-3,1.88,1.88,0,0,0,.22-.65,2.43,2.43,0,0,0-.18-.72l-5.55-13.83Z"/><path class="cls-7" d="M525.1,750.94h1.3c2.29,0,3.84-1.06,3.84-2.45s-1.21-2.17-2.91-2.17a7.24,7.24,0,0,0-3.63,1L523,745.7a9.52,9.52,0,0,1,5-1.37c2.3,0,5.09,1,5.09,3.94,0,1.86-1.71,3.07-3.38,3.41v.06c2.23.19,4.09,1.55,4.09,3.75,0,3.26-3.32,4.47-6.48,4.47a10.32,10.32,0,0,1-4.87-1.21l.71-1.83a8.69,8.69,0,0,0,4,1c2.27,0,3.69-1.09,3.69-2.58,0-2-2.11-2.57-4.37-2.57H525.1Z"/><path class="cls-7" d="M550.8,752c0,5.55-3.85,8-7.48,8-4.06,0-7.19-3-7.19-7.72,0-5,3.29-8,7.44-8C547.88,744.3,550.8,747.43,550.8,752Zm-11.91.16c0,3.28,1.89,5.77,4.56,5.77s4.56-2.46,4.56-5.83c0-2.55-1.27-5.77-4.5-5.77S538.89,749.33,538.89,752.18Z"/><path class="cls-7" d="M554.17,744.83a31.58,31.58,0,0,1,4.78-.34c2.51,0,6.66.4,6.66,3.75a3.55,3.55,0,0,1-3.13,3.38v.06c2.2.31,3.82,1.55,3.82,3.72,0,3.94-5,4.44-7.91,4.44-1.67,0-3.41-.13-4.22-.19Zm2.58,13a15.32,15.32,0,0,0,2.2.13c1.83,0,4.56-.44,4.56-2.61s-2.17-2.63-4.78-2.63h-2Zm0-6.91h2c2,0,4.1-.59,4.1-2.36,0-1.49-1.31-2.2-4-2.2a20,20,0,0,0-2.11.12Z"/><path class="cls-7" d="M142.35,472.92c2.44-1.59,5.39-3.51,7.66-4.78l0-.08c-2.48.61-5.17,1.16-8.19,1.69l-10.63,1.87-1-1.77,6.93-7.91c2-2.33,4-4.4,5.83-6.15l0-.06c-2.28,1.25-5.39,2.87-8.2,4.27l-8,4-1.28-2.23,18.82-9.18,1.72,3-7,8.14c-1.79,2-3.42,3.8-5,5.34l.05.08c2.09-.59,4.45-1.1,7.19-1.61l10.62-1.83,1.72,3L136,480.25,134.66,478Z"/><path class="cls-7" d="M151.5,477.12l-6,7.28c-.69.79-1.53,1.7-2.18,2.36l0,.06c.92-.21,2.07-.52,3.19-.74l9.12-1.82,1.44,2.5-11.31,1.8c-5.44.88-8.39,1.05-10.71.24a7.44,7.44,0,0,1-3.21-2l1.65-1.73a7.26,7.26,0,0,0,2.35,1.4,8.29,8.29,0,0,0,3.78.46,2.18,2.18,0,0,0,.67-.13,2.44,2.44,0,0,0,.52-.52l9.2-11.72Z"/><path class="cls-7" d="M163.87,498.54l-13,7.5-1.35-2.33,11.14-6.43-2.57-4.46-3.39,1.95c-3.65,2.11-6.29,3.17-8.37,2.11a4.39,4.39,0,0,1-2.3-2.11l1.72-1.31a3.34,3.34,0,0,0,1.28,1c1.58.7,3.49-.22,6.39-1.9l5.23-3Z"/><path class="cls-7" d="M167.42,504.69l-4.4,2.54a15.16,15.16,0,0,1,1.37,2.07c1.69,2.93,2.56,6.54-.9,8.54a4.23,4.23,0,0,1-3.77.35c-2-.72-3.66-2.86-4.76-4.77a36.21,36.21,0,0,1-1.83-3.6l12.94-7.47Zm-11.36,6.56a16.46,16.46,0,0,0,.9,1.8c1,1.78,2.93,3.72,5.11,2.46s1.37-3.94.37-5.69a12,12,0,0,0-1.12-1.61Z"/><path class="cls-7" d="M178.08,523.16l-1.87,1.08-2.35-4-11.11,6.42-1.35-2.34,11.12-6.42-2.35-4.05,1.88-1.09Z"/><path class="cls-7" d="M180.53,527.4l-5.47,3.16c-2.07,1.2-3.38,1.91-5.29,2.88l0,.09c2-.13,3.21-.2,5.21-.21l9.05.18,1.6,2.76-13,7.51-1.3-2.26,5.51-3.18c2.12-1.22,3.25-1.81,5.4-2.91l0-.08c-2.15.13-3.52.17-5.27.18-2.73-.07-6-.06-9.13-.13l-1.57-2.71,13-7.51Z"/><path class="cls-7" d="M187.94,540.23l1.68,2.9-5.19,6.15c-.78.88-2,2.36-2.89,3.24l0,.06c1.14-.27,3.62-.74,5.34-1.05l6.88-1.17,1.69,2.92L183,561.7l-1.31-2.26,6-3.87c1.35-.89,2.95-2,4.5-2.93l0-.08c-1.39.34-2.64.59-5,1l-8,1.29-1-1.72,5.09-6c1-1.11,2.55-2.76,3.58-3.78l-.07-.11c-1.56.83-3.32,1.74-4.79,2.49l-6.34,3.22-1.25-2.17Z"/><path class="cls-7" d="M198.17,572.7c-4.81,2.78-8.83.66-10.64-2.48-2-3.52-1-7.72,3.09-10.09,4.35-2.51,8.54-1.14,10.62,2.46S202.14,570.41,198.17,572.7Zm-6.09-10.23c-2.85,1.64-4.05,4.52-2.72,6.83s4.41,2.72,7.33,1c2.2-1.27,4.36-4,2.75-6.77S194.55,561,192.08,562.47Z"/><path class="cls-7" d="M212,581.87l-11.22,6.48.75,1.36-6,3.26-1.07-1.85,4.07-2.5-5.19-9-4.2,2.28-1.07-1.85,5.82-3.51.66,1.09a11.77,11.77,0,0,0,3.41-.25,19.6,19.6,0,0,0,5.61-2.24L207,573.2Zm-7.74-4.3a19.84,19.84,0,0,1-5.22,2.12,13.54,13.54,0,0,1-3,.35l3.45,6,9.4-5.43-2.46-4.27Z"/><path class="cls-7" d="M205.54,600.73l1.53-1.13,0-.08a5.61,5.61,0,0,1-4.23-2.86,4.28,4.28,0,0,1,1.44-6.13c3.14-1.81,6.47,0,9.34,5l.27-.15c1.07-.62,2.84-2,1.3-4.69a7.54,7.54,0,0,0-2.92-2.83l1.25-1.43a9.3,9.3,0,0,1,3.62,3.6c2.29,4,.14,6.51-2.47,8l-4.86,2.81a22.15,22.15,0,0,0-3,2Zm6.43-4.18c-1.43-2.6-3.58-5.27-6.1-3.81a2.41,2.41,0,0,0-1,3.53,3.74,3.74,0,0,0,4,1.89,2.83,2.83,0,0,0,.83-.3Z"/><path class="cls-7" d="M227.58,608.88l-13,7.5-1.35-2.33,11.14-6.43-2.57-4.46-3.38,2c-3.65,2.11-6.3,3.17-8.38,2.11a4.38,4.38,0,0,1-2.29-2.11l1.71-1.31a3.49,3.49,0,0,0,1.28,1c1.59.7,3.49-.22,6.39-1.9l5.24-3Z"/><path class="cls-7" d="M231.12,615l-4.4,2.54a15.16,15.16,0,0,1,1.38,2.07c1.69,2.93,2.55,6.54-.91,8.54a4.23,4.23,0,0,1-3.77.35c-2-.72-3.66-2.86-4.76-4.77a36.21,36.21,0,0,1-1.83-3.6l12.95-7.47Zm-11.35,6.55a15.6,15.6,0,0,0,.9,1.81c1,1.77,2.93,3.72,5.1,2.46s1.38-3.94.37-5.69a13,13,0,0,0-1.11-1.61Z"/><path class="cls-7" d="M238.84,628.4l-5.23,3,3.56,6.18,5.24-3,1.35,2.34-13,7.5-1.35-2.33,5.88-3.4-3.56-6.18-5.88,3.4-1.35-2.34,13-7.5Z"/><path class="cls-7" d="M247.31,643.05l-4.44,2.56a12,12,0,0,1,1.39,2c1.61,2.79,2.09,6.28-1.11,8.12a4.25,4.25,0,0,1-3.78.4,9.47,9.47,0,0,1-4.53-4.37,39.78,39.78,0,0,1-1.83-3.6l13-7.47ZM236,649.61a14.56,14.56,0,0,0,.84,1.7c1,1.8,2.92,3.33,4.93,2.16s1.66-3.46.63-5.23a12.94,12.94,0,0,0-1.14-1.67Zm18.12,5.15-13,7.51-1.35-2.34,13-7.5Z"/><path class="cls-7" d="M250.13,663.94c-3.17,1.9-3.3,4.7-1.94,7.06a9.9,9.9,0,0,0,2.75,3.21l-1.46,1.38a12,12,0,0,1-3.3-3.85c-2.31-4-1.06-7.92,2.86-10.18s8.34-1.74,10.53,2.05c2.45,4.24-.63,7.53-3,8.91a11.7,11.7,0,0,1-1.15.55Zm5.69,5.95c1.52-.84,3.48-2.83,1.95-5.49-1.38-2.39-4.19-2.17-5.94-1.41Z"/><path class="cls-7" d="M139.41,530.58l-13,7.5-1.37-2.36,11.12-6.42-3.49-6-11.12,6.42-1.34-2.34,13-7.5Z"/><path class="cls-7" d="M135.46,539.73c-3.16,1.9-3.3,4.7-1.94,7.06a9.9,9.9,0,0,0,2.75,3.21l-1.46,1.38a12.16,12.16,0,0,1-3.3-3.85c-2.31-4-1.06-7.91,2.86-10.18s8.35-1.74,10.53,2c2.45,4.24-.63,7.53-3,8.9a9.41,9.41,0,0,1-1.15.56Zm5.69,5.95c1.52-.84,3.49-2.83,1.95-5.49-1.38-2.39-4.19-2.17-5.93-1.41Z"/><path class="cls-7" d="M145.15,550.32c1.67-1,3-1.79,4.18-2.56l1.23,2.12-2.17,1.39,0,.06a5.89,5.89,0,0,1,5.19,3.16c1.82,3.14.52,7-3.43,9.32-4.67,2.69-8.62,1.18-10.39-1.88a5.27,5.27,0,0,1-.27-5.18l0,0-7.06,4.08-1.35-2.34ZM143,554.65a6,6,0,0,0-.91.67,4.22,4.22,0,0,0-.72,5.14c1.44,2.49,4.32,2.77,7.3,1,2.61-1.51,4-4.16,2.6-6.66a4.35,4.35,0,0,0-5-1.88,4.6,4.6,0,0,0-1,.39Z"/><path class="cls-7" d="M152.05,568.46c-3.17,1.9-3.31,4.7-1.94,7.06a9.78,9.78,0,0,0,2.75,3.21l-1.46,1.38a12.1,12.1,0,0,1-3.3-3.86c-2.31-4-1.06-7.91,2.86-10.17s8.34-1.74,10.53,2c2.44,4.24-.64,7.52-3,8.9a12.41,12.41,0,0,1-1.14.56Zm5.69,5.95c1.52-.84,3.48-2.84,1.94-5.5-1.37-2.38-4.18-2.16-5.93-1.4Z"/><path class="cls-7" d="M165.79,576.63a30.84,30.84,0,0,1,2.68,4c1.26,2.17,3,6,.08,7.64-1.61.93-3.31.27-4.49-1l-.05,0c.83,2.06.56,4.08-1.32,5.17-3.41,2-6.32-2.08-7.79-4.63-.84-1.45-1.6-3-2-3.75Zm-10,8.74a14.52,14.52,0,0,0,1,2c.91,1.58,2.65,3.73,4.53,2.64s1.2-3.19-.1-5.45l-1-1.72Zm6-3.43,1,1.77c1,1.75,2.56,3.25,4.09,2.37,1.29-.75,1.25-2.23-.11-4.59a20.31,20.31,0,0,0-1.16-1.77Z"/><path class="cls-7" d="M174.13,605.47c-4.81,2.77-8.82.65-10.64-2.49-2-3.52-1-7.72,3.09-10.09,4.35-2.51,8.55-1.14,10.62,2.46S178.1,603.17,174.13,605.47ZM168,595.23c-2.84,1.64-4,4.52-2.71,6.83s4.4,2.72,7.32,1c2.2-1.28,4.36-4,2.75-6.78S170.51,593.81,168,595.23Z"/><path class="cls-7" d="M177.41,609l.65,1.12c1.15,2,2.83,2.8,4,2.11s1.28-2.13.42-3.61A7.21,7.21,0,0,0,179.8,606l1.11-1.42a9.44,9.44,0,0,1,3.67,3.64c1.15,2,1.66,4.91-.86,6.37-1.61.93-3.51.06-4.65-1.22l0,0c.95,2,.7,4.32-1.2,5.42-2.82,1.63-5.53-.64-7.11-3.38a10.41,10.41,0,0,1-1.39-4.82l1.94-.3a8.76,8.76,0,0,0,1.1,4c1.13,2,2.79,2.65,4.08,1.91,1.74-1,1.17-3.11,0-5.07l-.68-1.18Z"/><path class="cls-7" d="M190.27,618.66l-5.64,3.26.32.56,8.46,1.63,1.66,2.88-9.15-2.28c1,2.22.33,4.29-1.42,6.66a30.93,30.93,0,0,0-2.36,3.23l-1.43-2.48a21.58,21.58,0,0,1,2-2.74c1.59-2.09,1.86-3.86.58-6.06l-.26-.46-5.72,3.3-1.35-2.33,13-7.51Z"/><path class="cls-7" d="M197.6,631.36l-5.48,3.16c-2.07,1.19-3.37,1.91-5.29,2.87l0,.1c2-.14,3.21-.21,5.21-.21l9.06.17,1.59,2.77-13,7.5-1.3-2.25,5.5-3.18c2.12-1.22,3.25-1.81,5.41-2.91l-.05-.08c-2.14.13-3.51.17-5.26.18-2.73-.07-6.05-.06-9.14-.13l-1.56-2.72,13-7.5Z"/><path class="cls-7" d="M80.74,363.93l16.19,9.35,1-1.56,6.11,3.75L103,377.29l-4.45-2.35-6.58,11.41L96.18,389l-1.05,1.82-6.3-3.42.74-1.4A25.1,25.1,0,0,0,86.62,382a31.15,31.15,0,0,0-7.13-5.27l-4.59-2.65Zm.76,11a28.79,28.79,0,0,1,6.85,5.18,20,20,0,0,1,2.59,3.46l4.62-8-14.23-8.22L78.09,373Z"/><path class="cls-7" d="M101.5,354.51c4.81,2.77,5,7.31,3.17,10.46-2,3.51-6.18,4.74-10.28,2.37-4.35-2.52-5.26-6.84-3.19-10.43C93.36,353.17,97.53,352.22,101.5,354.51ZM95.68,364.9c2.85,1.64,5.94,1.24,7.28-1.06s.16-5.18-2.77-6.87c-2.2-1.27-5.63-1.78-7.24,1S93.21,363.47,95.68,364.9Z"/><path class="cls-7" d="M101.4,339.92l1.91,1.1-3.25,5.64,11.09,6.4-1.35,2.34-13-7.5Z"/><path class="cls-7" d="M115.67,330c4.81,2.78,5,7.32,3.17,10.46-2,3.52-6.18,4.74-10.29,2.37-4.35-2.52-5.26-6.83-3.18-10.43S111.7,327.68,115.67,330Zm-5.82,10.39c2.85,1.64,5.94,1.25,7.27-1.06s.16-5.18-2.76-6.87c-2.21-1.27-5.63-1.78-7.25,1S107.38,338.93,109.85,340.36Z"/><path class="cls-7" d="M111.13,323.45a31.94,31.94,0,0,1,2.09-4.3c1.26-2.18,3.68-5.58,6.58-3.9a3.55,3.55,0,0,1,1.36,4.4l.06,0c1.37-1.75,3.25-2.53,5.13-1.44,3.41,2,1.36,6.51-.12,9.06-.83,1.45-1.81,2.89-2.27,3.56Zm6.59.8,1-1.77c1-1.75,1.54-3.84,0-4.72-1.29-.75-2.56,0-3.92,2.38a19.61,19.61,0,0,0-1,1.89Zm6,3.48a15.42,15.42,0,0,0,1.21-1.84c.92-1.59,1.91-4.17,0-5.25s-3.37.56-4.68,2.82l-1,1.72Z"/><path class="cls-7" d="M131.93,301.81c4.81,2.77,5,7.31,3.17,10.45-2,3.52-6.18,4.75-10.29,2.37-4.35-2.51-5.26-6.83-3.18-10.42S128,299.51,131.93,301.81Zm-5.82,10.39c2.85,1.64,5.94,1.24,7.27-1.07s.16-5.17-2.77-6.86c-2.2-1.27-5.62-1.78-7.24,1S123.64,310.77,126.11,312.2Z"/><path class="cls-7" d="M131.5,297.59c-1.66-1-3-1.68-4.3-2.34l1.22-2.12,2.29,1.18,0-.06a5.89,5.89,0,0,1,.15-6.07c1.81-3.14,5.83-4,9.78-1.69,4.67,2.69,5.34,6.87,3.57,9.94a5.28,5.28,0,0,1-4.35,2.82l0,.05,7.06,4.08-1.35,2.33Zm4.81-.33a6.87,6.87,0,0,0,1,.45,4.21,4.21,0,0,0,4.81-1.95c1.45-2.5.24-5.13-2.74-6.85-2.6-1.5-5.62-1.42-7.06,1.08a4.35,4.35,0,0,0,.86,5.26,4.7,4.7,0,0,0,.87.72Z"/><path class="cls-7" d="M157.23,272.14a10.11,10.11,0,0,1-1.41,4.16c-2.26,3.92-6.39,4.94-10.37,2.64a7.62,7.62,0,0,1-2.87-11,9.09,9.09,0,0,1,2.57-2.89l1.51,1.59a6.35,6.35,0,0,0-2.2,2.38c-1.72,3-.45,5.87,2.27,7.43,3,1.74,6,.88,7.46-1.7a7.64,7.64,0,0,0,1-3.28Z"/><path class="cls-7" d="M157.28,259.14c3.23,1.79,5.72.51,7.09-1.85a9.88,9.88,0,0,0,1.4-4l1.93.58a12.29,12.29,0,0,1-1.69,4.78c-2.31,4-6.33,4.87-10.25,2.61s-5.67-6.35-3.49-10.14c2.45-4.24,6.84-3.22,9.23-1.84a9.35,9.35,0,0,1,1.05.72Zm2.31-7.9c-1.49-.9-4.2-1.6-5.73,1-1.38,2.39.22,4.71,1.75,5.85Z"/><path class="cls-7" d="M163.22,232.86l11.22,6.48.81-1.33,5.8,3.53L180,243.39l-4.2-2.28-5.19,9,4.07,2.49-1.07,1.85-5.94-3.28.61-1.12a11.71,11.71,0,0,0-1.92-2.82,19.92,19.92,0,0,0-4.74-3.75l-3.39-1.95Zm.15,8.85a19.94,19.94,0,0,1,4.44,3.47,14.31,14.31,0,0,1,1.82,2.44l3.45-6-9.4-5.43-2.46,4.27Z"/><path class="cls-7" d="M166.88,226.52l5.47,3.16c2.07,1.2,3.34,2,5.14,3.15l.07-.07c-1.14-1.69-1.79-2.68-2.79-4.4l-4.38-7.93,1.6-2.77,13,7.5-1.3,2.26-5.51-3.18C176.06,223,175,222.33,173,221l-.05.08c1.19,1.8,1.91,3,2.79,4.47,1.3,2.4,3,5.27,4.45,8l-1.56,2.71-13-7.5Z"/><path class="cls-7" d="M175.52,211.54l5.24,3,3.57-6.17-5.24-3,1.35-2.34,13,7.5-1.35,2.34-5.88-3.4-3.57,6.18,5.88,3.39-1.35,2.34-13-7.5Z"/><path class="cls-7" d="M200.53,197.13a9.91,9.91,0,0,1-1.4,4.16c-2.26,3.92-6.4,4.94-10.37,2.64a7.62,7.62,0,0,1-2.87-11,9.2,9.2,0,0,1,2.56-2.89l1.52,1.59a6.36,6.36,0,0,0-2.2,2.38c-1.72,3-.45,5.87,2.26,7.43,3,1.74,6,.88,7.47-1.7a7.93,7.93,0,0,0,1-3.27Z"/><path class="cls-7" d="M194.93,177.93l1.88,1.08-2.34,4.06,11.12,6.42-1.35,2.33-11.12-6.42-2.34,4.06-1.88-1.09Z"/><path class="cls-7" d="M196.25,176a31.63,31.63,0,0,1,2.1-4.31c1.25-2.17,3.68-5.57,6.58-3.89,1.61.93,1.89,2.73,1.36,4.4l.05,0c1.37-1.75,3.25-2.53,5.13-1.44,3.41,2,1.36,6.51-.11,9.06-.84,1.45-1.81,2.89-2.27,3.56Zm6.6.8,1-1.77c1-1.75,1.54-3.84,0-4.73-1.29-.74-2.56,0-3.93,2.39a19.26,19.26,0,0,0-.94,1.89Zm6,3.48a16.75,16.75,0,0,0,1.21-1.84c.91-1.59,1.9-4.17,0-5.25s-3.37.56-4.67,2.81l-1,1.72Z"/><path class="cls-7" d="M211.56,165.12c3.23,1.79,5.72.51,7.09-1.85a9.83,9.83,0,0,0,1.4-4l1.93.58a12.32,12.32,0,0,1-1.69,4.79c-2.31,4-6.32,4.87-10.25,2.6s-5.67-6.35-3.48-10.14c2.44-4.24,6.83-3.21,9.22-1.83a11.27,11.27,0,0,1,1.05.71Zm2.31-7.9c-1.49-.9-4.2-1.6-5.73,1.06-1.38,2.39.22,4.71,1.75,5.84Z"/><path class="cls-7" d="M213,146.71l5.23,3,3.57-6.18-5.24-3,1.35-2.33,13,7.5L229.52,148l-5.88-3.39-3.57,6.17,5.88,3.4-1.35,2.34-13-7.51Z"/><path class="cls-7" d="M221.42,132.05l5.24,3,3.56-6.17-5.23-3,1.34-2.33,13,7.5L238,133.38,232.1,130l-3.56,6.18,5.88,3.39-1.35,2.34-13-7.51Z"/><path class="cls-7" d="M241.75,111.6c4.8,2.78,5,7.32,3.16,10.46-2,3.52-6.17,4.74-10.28,2.37-4.35-2.52-5.26-6.83-3.18-10.43S237.77,109.31,241.75,111.6ZM235.93,122c2.84,1.64,5.94,1.25,7.27-1.06s.16-5.18-2.77-6.87c-2.2-1.27-5.63-1.78-7.24,1S233.46,120.56,235.93,122Z"/><path class="cls-7" d="M233.92,98.17c1.21.59,2.42.54,3-.54s.11-2.18-1-3l1-1.69a3.75,3.75,0,0,1,1.27,5.49c-1.37,2.36-3.37,2.43-5.29,1.46Zm4.41,4.59,5.48,3.16c2.07,1.2,3.34,2,5.13,3.14L249,109c-1.13-1.7-1.78-2.68-2.79-4.41l-4.37-7.93,1.6-2.76,13,7.5-1.3,2.26-5.5-3.18c-2.13-1.23-3.2-1.92-5.23-3.23l0,.08c1.18,1.79,1.9,3,2.78,4.47,1.3,2.4,3,5.27,4.46,8L250,112.49,237,105Z"/><path class="cls-7" d="M158.22,315.92l5.64,3.25.32-.56-2.81-8.14,1.65-2.88,2.62,9.06c1.42-2,3.54-2.42,6.47-2.09a34.24,34.24,0,0,0,4,.43l-1.42,2.47a20.14,20.14,0,0,1-3.36-.33c-2.6-.32-4.27.33-5.54,2.53l-.26.46,5.72,3.3-1.35,2.34-13-7.51Z"/><path class="cls-7" d="M177.38,297.48c4.81,2.78,5,7.32,3.17,10.46-2,3.52-6.18,4.74-10.29,2.37-4.35-2.51-5.25-6.83-3.18-10.43S173.41,295.19,177.38,297.48Zm-5.82,10.39c2.85,1.64,5.94,1.25,7.28-1.06s.15-5.17-2.77-6.86c-2.2-1.27-5.63-1.79-7.24,1S169.09,306.45,171.56,307.87Z"/><path class="cls-7" d="M172.79,290.68l1.67-2.9,7.92,1.42c1.15.24,3.06.59,4.25.88l0-.05c-.79-.86-2.44-2.77-3.57-4.11l-4.46-5.36,1.69-2.93,13.53,6.59-1.31,2.26-6.37-3.29c-1.44-.72-3.17-1.58-4.78-2.44l0,.08c1,1,1.83,2,3.39,3.86l5.11,6.28-1,1.72-7.75-1.4c-1.47-.31-3.67-.83-5.07-1.21l-.06.11c1.5.94,3.17,2,4.55,2.91l6,3.88-1.25,2.17Z"/><path class="cls-7" d="M188.79,263l13,7.51-1.36,2.36-11.12-6.42-3.49,6,11.12,6.42-1.35,2.34-13-7.51Z"/><path class="cls-7" d="M208.15,259.44l-1.74-.75,0,.08a5.59,5.59,0,0,1-.36,5.09,4.28,4.28,0,0,1-6,1.82c-3.14-1.82-3.25-5.6-.32-10.61l-.27-.15c-1.07-.62-3.18-1.44-4.71,1.21a7.51,7.51,0,0,0-1,3.95l-1.87-.37a9.44,9.44,0,0,1,1.31-4.93c2.3-4,5.57-3.38,8.17-1.87l4.86,2.8a21.34,21.34,0,0,0,3.24,1.59ZM201.32,256c-1.54,2.55-2.78,5.74-.25,7.2a2.41,2.41,0,0,0,3.54-.93,3.74,3.74,0,0,0-.36-4.4,3.27,3.27,0,0,0-.68-.56Z"/><path class="cls-7" d="M199.79,243.91l5.24,3,3.56-6.18-5.24-3,1.35-2.34,13,7.51-1.35,2.33-5.88-3.39L206.9,248l5.89,3.4-1.35,2.33-13-7.5Z"/><path class="cls-7" d="M208.19,229.36l5.48,3.17c2.07,1.19,3.34,2,5.13,3.14l.07-.07c-1.13-1.69-1.78-2.67-2.79-4.4l-4.37-7.93,1.6-2.77,13,7.51-1.3,2.25-5.5-3.18c-2.13-1.22-3.19-1.91-5.23-3.23l0,.08c1.18,1.8,1.9,3,2.78,4.48,1.3,2.4,3,5.26,4.46,8l-1.57,2.72-13-7.51Z"/><path class="cls-7" d="M223.21,219.35c3.22,1.79,5.72.51,7.08-1.85a9.92,9.92,0,0,0,1.41-4l1.92.58a11.91,11.91,0,0,1-1.69,4.78c-2.31,4-6.32,4.87-10.24,2.61s-5.67-6.35-3.49-10.14c2.45-4.24,6.84-3.22,9.23-1.84a10.41,10.41,0,0,1,1,.72Zm2.31-7.9c-1.49-.9-4.2-1.6-5.73,1.05-1.38,2.39.21,4.71,1.74,5.85Z"/><path class="cls-7" d="M220.14,196.46c1.2.58,2.41.53,3-.54s.12-2.19-1-3l1-1.69a3.75,3.75,0,0,1,1.27,5.49c-1.37,2.37-3.37,2.43-5.29,1.47Zm4.4,4.58L230,204.2c2.07,1.2,3.34,2,5.13,3.15l.08-.07c-1.14-1.69-1.79-2.68-2.8-4.4L228.06,195l1.6-2.77,13,7.5-1.3,2.26-5.5-3.18c-2.12-1.22-3.19-1.91-5.23-3.23l0,.08c1.18,1.79,1.9,3,2.79,4.47,1.3,2.4,3,5.27,4.45,8l-1.57,2.71-13-7.5Z"/><path class="cls-4" d="M366.09,343.16v47.18H360V348.27H338.09v42.07H332V343.16Z"/><path class="cls-4" d="M417.05,366.26c0,16.24-9.87,24.85-21.91,24.85-12.46,0-21.21-9.66-21.21-23.94,0-15,9.31-24.78,21.91-24.78C408.72,342.39,417.05,352.26,417.05,366.26Zm-36.61.77c0,10.08,5.46,19.11,15.05,19.11s15.12-8.89,15.12-19.6c0-9.38-4.9-19.18-15.05-19.18S380.44,356.67,380.44,367Z"/><path class="cls-4" d="M430.21,343.16v15c0,6.44,3.36,10.08,10,10.08a18.56,18.56,0,0,0,9.31-2.66v-22.4h6.16v47.18h-6.16v-20h-.14a22.79,22.79,0,0,1-11.34,2.94c-6.23,0-13.93-2.66-13.93-14.21V343.16Z"/><path class="cls-4" d="M490.69,368.22H472.35v17h20.44v5.11H466.26V343.16h25.48v5.11H472.35v14.91h18.34Z"/><path class="cls-4" d="M540.46,369.62c-.35-6.58-.77-14.49-.7-20.37h-.21c-1.61,5.53-3.57,11.41-5.95,17.92l-8.33,22.89h-4.62L513,367.59c-2.24-6.65-4.13-12.74-5.46-18.34h-.14c-.14,5.88-.49,13.79-.91,20.86l-1.26,20.23h-5.81l3.29-47.18h7.77l8,22.82c2,5.81,3.57,11,4.76,15.89h.21c1.19-4.76,2.87-9.94,5-15.89l8.4-22.82h7.77l2.94,47.18h-6Z"/><path class="cls-4" d="M558.45,343.16l9.38,20.09c1.19,2.8,2.31,5.53,3.43,8.33h.14c.84-2.45,1.75-5.18,2.94-8.54l7.35-19.88h6.44l-9.87,24.22c-2.59,6.3-5.53,13.51-8.82,17.92-3.08,3.85-6.51,5.81-10.71,5.81a10.52,10.52,0,0,1-3.43-.42l.63-5a8.55,8.55,0,0,0,2.24.21c4.9-.07,7.77-4.76,9.24-8.12a2.84,2.84,0,0,0-.21-2.87l-15.68-31.78Z"/><path class="cls-4" d="M254.3,427.16V447c0,7.49-.14,13.65-.56,19.95l.14.07c2.38-4.9,5.32-10,8.75-15.61l15.27-24.29H284v47.18h-5.74V454.25c0-7.63.07-13.23.56-19.18l-.21-.07a143.89,143.89,0,0,1-8.76,15.89l-14.77,23.45h-6.51V427.16Z"/><path class="cls-4" d="M334.39,453.62c-.35-6.58-.77-14.49-.7-20.37h-.21c-1.61,5.53-3.58,11.41-6,17.92l-8.33,22.89h-4.62l-7.63-22.47c-2.24-6.65-4.13-12.74-5.46-18.34h-.14c-.14,5.88-.49,13.79-.91,20.86l-1.26,20.23h-5.81l3.29-47.18h7.77L312.47,450c2,5.81,3.57,11,4.76,15.89h.21c1.19-4.76,2.87-9.94,5-15.89l8.4-22.82h7.78l2.94,47.18h-5.95Z"/><path class="cls-4" d="M375.33,452.22H357v17h20.44v5.11H350.9V427.16h25.48v5.11H357v14.91h18.34Z"/><path class="cls-4" d="M391.43,427.16V446.9h22.82V427.16h6.16v47.18h-6.16V452.22H391.43v22.12h-6.09V427.16Z"/><path class="cls-4" d="M437.07,427.16V446.9h22.82V427.16h6.16v47.18h-6.16V452.22H437.07v22.12H431V427.16Z"/><path class="cls-4" d="M516.94,450.26c0,16.24-9.87,24.86-21.91,24.86-12.46,0-21.21-9.67-21.21-23.95,0-15,9.31-24.78,21.91-24.78C508.61,426.39,516.94,436.26,516.94,450.26Zm-36.61.77c0,10.08,5.46,19.11,15.05,19.11s15.12-8.89,15.12-19.6c0-9.38-4.9-19.18-15.05-19.18S480.33,440.67,480.33,451Z"/><path class="cls-4" d="M579.45,453.62c-.35-6.58-.77-14.49-.7-20.37h-.21c-1.61,5.53-3.57,11.41-5.95,17.92l-8.33,22.89h-4.62L552,451.59c-2.24-6.65-4.13-12.74-5.46-18.34h-.14c-.14,5.88-.49,13.79-.91,20.86l-1.26,20.23h-5.81l3.29-47.18h7.77l8,22.82c2,5.81,3.57,11,4.76,15.89h.21c1.19-4.76,2.87-9.94,5-15.89l8.4-22.82h7.77l2.94,47.18h-6Z"/><path class="cls-4" d="M602.06,427.16V444.8a48.09,48.09,0,0,1,5.6-.35c9.73,0,18.2,4.27,18.2,14.77a14.2,14.2,0,0,1-3.64,10c-3.85,4.06-10.43,5.53-16.8,5.53a71.19,71.19,0,0,1-9.45-.56v-47Zm0,42.49a23.42,23.42,0,0,0,4.9.35c6.72,0,12.53-3.43,12.53-10.57,0-7.35-6.3-10.15-12.6-10.15a30.23,30.23,0,0,0-4.83.35Zm35.21-42.49v47.18h-6.16V427.16Z"/><path class="cls-4" d="M652.74,461l-.14-1.82c-.42-3.78.84-7.91,4.34-12.11,3.15-3.71,4.9-6.44,4.9-9.59,0-3.57-2.24-5.95-6.65-6a12.44,12.44,0,0,0-7.07,2.17l-1.69-4.41a18.41,18.41,0,0,1,10-2.8c8,0,11.69,5,11.69,10.29,0,4.76-2.66,8.19-6,12.18-3.08,3.64-4.2,6.72-4,10.29l.07,1.82Zm-1.54,9.8a4.14,4.14,0,0,1,4.2-4.41,4.39,4.39,0,1,1-4.2,4.41Z"/></svg>